<mxfile host="app.diagrams.net" modified="2021-01-17T18:40:04.790Z" agent="5.0 (Windows NT 10.0; Win64; x64) AppleWebKit/537.36 (KHTML, like Gecko) Chrome/87.0.4280.141 Safari/537.36 Edg/87.0.664.75" etag="iDiv5H65dZI1iOAJoipj" version="13.9.2" type="github">
  <diagram id="AQjkesUoZsN7H_KsK310" name="Page-1">
    <mxGraphModel dx="1422" dy="794" grid="1" gridSize="10" guides="1" tooltips="1" connect="1" arrows="1" fold="1" page="1" pageScale="1" pageWidth="1654" pageHeight="1169" math="0" shadow="0">
      <root>
        <mxCell id="0" />
        <mxCell id="1" parent="0" />
        <mxCell id="fxaJQLIq1E5l9hxzxbRq-1" value="Distributer" style="rounded=0;whiteSpace=wrap;html=1;" vertex="1" parent="1">
          <mxGeometry x="1000" y="1040" width="120" height="80" as="geometry" />
        </mxCell>
        <mxCell id="fxaJQLIq1E5l9hxzxbRq-2" value="Prodavnica" style="rounded=0;whiteSpace=wrap;html=1;" vertex="1" parent="1">
          <mxGeometry x="1480" y="1040" width="120" height="80" as="geometry" />
        </mxCell>
        <mxCell id="fxaJQLIq1E5l9hxzxbRq-6" value="" style="group" vertex="1" connectable="0" parent="1">
          <mxGeometry x="1240" y="1040" width="120" height="80" as="geometry" />
        </mxCell>
        <mxCell id="fxaJQLIq1E5l9hxzxbRq-4" value="" style="rounded=0;whiteSpace=wrap;html=1;" vertex="1" parent="fxaJQLIq1E5l9hxzxbRq-6">
          <mxGeometry width="120" height="80" as="geometry" />
        </mxCell>
        <mxCell id="fxaJQLIq1E5l9hxzxbRq-3" value="saradjuje sa" style="rhombus;whiteSpace=wrap;html=1;" vertex="1" parent="fxaJQLIq1E5l9hxzxbRq-6">
          <mxGeometry width="120" height="80" as="geometry" />
        </mxCell>
        <mxCell id="fxaJQLIq1E5l9hxzxbRq-7" value="Ugovor" style="rounded=0;whiteSpace=wrap;html=1;" vertex="1" parent="1">
          <mxGeometry x="1480" y="720" width="120" height="80" as="geometry" />
        </mxCell>
        <mxCell id="fxaJQLIq1E5l9hxzxbRq-8" value="Sirovina" style="rounded=0;whiteSpace=wrap;html=1;" vertex="1" parent="1">
          <mxGeometry x="760" y="880" width="120" height="80" as="geometry" />
        </mxCell>
        <mxCell id="fxaJQLIq1E5l9hxzxbRq-11" value="" style="group" vertex="1" connectable="0" parent="1">
          <mxGeometry x="1240" y="720" width="120" height="80" as="geometry" />
        </mxCell>
        <mxCell id="fxaJQLIq1E5l9hxzxbRq-9" value="" style="rounded=0;whiteSpace=wrap;html=1;" vertex="1" parent="fxaJQLIq1E5l9hxzxbRq-11">
          <mxGeometry width="120" height="80" as="geometry" />
        </mxCell>
        <mxCell id="fxaJQLIq1E5l9hxzxbRq-10" value="sadrzi" style="rhombus;whiteSpace=wrap;html=1;" vertex="1" parent="fxaJQLIq1E5l9hxzxbRq-11">
          <mxGeometry width="120" height="80" as="geometry" />
        </mxCell>
        <mxCell id="fxaJQLIq1E5l9hxzxbRq-12" value="Proizvod" style="rounded=0;whiteSpace=wrap;html=1;" vertex="1" parent="1">
          <mxGeometry x="1000" y="720" width="120" height="80" as="geometry" />
        </mxCell>
        <mxCell id="fxaJQLIq1E5l9hxzxbRq-15" style="edgeStyle=orthogonalEdgeStyle;rounded=0;orthogonalLoop=1;jettySize=auto;html=1;exitX=1;exitY=0.5;exitDx=0;exitDy=0;entryX=0;entryY=0.5;entryDx=0;entryDy=0;" edge="1" parent="1" source="fxaJQLIq1E5l9hxzxbRq-3" target="fxaJQLIq1E5l9hxzxbRq-2">
          <mxGeometry relative="1" as="geometry" />
        </mxCell>
        <mxCell id="fxaJQLIq1E5l9hxzxbRq-16" style="edgeStyle=orthogonalEdgeStyle;rounded=0;orthogonalLoop=1;jettySize=auto;html=1;exitX=0;exitY=0.5;exitDx=0;exitDy=0;entryX=1;entryY=0.5;entryDx=0;entryDy=0;" edge="1" parent="1" source="fxaJQLIq1E5l9hxzxbRq-3" target="fxaJQLIq1E5l9hxzxbRq-1">
          <mxGeometry relative="1" as="geometry" />
        </mxCell>
        <mxCell id="fxaJQLIq1E5l9hxzxbRq-17" style="edgeStyle=orthogonalEdgeStyle;rounded=0;orthogonalLoop=1;jettySize=auto;html=1;exitX=1;exitY=0.5;exitDx=0;exitDy=0;entryX=0;entryY=0.5;entryDx=0;entryDy=0;" edge="1" parent="1" source="fxaJQLIq1E5l9hxzxbRq-10" target="fxaJQLIq1E5l9hxzxbRq-7">
          <mxGeometry relative="1" as="geometry" />
        </mxCell>
        <mxCell id="fxaJQLIq1E5l9hxzxbRq-18" style="edgeStyle=orthogonalEdgeStyle;rounded=0;orthogonalLoop=1;jettySize=auto;html=1;exitX=0;exitY=0.5;exitDx=0;exitDy=0;entryX=1;entryY=0.5;entryDx=0;entryDy=0;" edge="1" parent="1" source="fxaJQLIq1E5l9hxzxbRq-10" target="fxaJQLIq1E5l9hxzxbRq-12">
          <mxGeometry relative="1" as="geometry" />
        </mxCell>
        <mxCell id="fxaJQLIq1E5l9hxzxbRq-20" style="edgeStyle=orthogonalEdgeStyle;rounded=0;orthogonalLoop=1;jettySize=auto;html=1;entryX=0;entryY=0.5;entryDx=0;entryDy=0;" edge="1" parent="1" source="fxaJQLIq1E5l9hxzxbRq-19" target="fxaJQLIq1E5l9hxzxbRq-1">
          <mxGeometry relative="1" as="geometry" />
        </mxCell>
        <mxCell id="fxaJQLIq1E5l9hxzxbRq-21" style="edgeStyle=orthogonalEdgeStyle;rounded=0;orthogonalLoop=1;jettySize=auto;html=1;exitX=0.5;exitY=0;exitDx=0;exitDy=0;entryX=0.5;entryY=1;entryDx=0;entryDy=0;" edge="1" parent="1" source="fxaJQLIq1E5l9hxzxbRq-19" target="fxaJQLIq1E5l9hxzxbRq-8">
          <mxGeometry relative="1" as="geometry" />
        </mxCell>
        <mxCell id="fxaJQLIq1E5l9hxzxbRq-19" value="dobavlja" style="rhombus;whiteSpace=wrap;html=1;" vertex="1" parent="1">
          <mxGeometry x="760" y="1040" width="120" height="80" as="geometry" />
        </mxCell>
        <mxCell id="fxaJQLIq1E5l9hxzxbRq-30" style="edgeStyle=orthogonalEdgeStyle;rounded=0;orthogonalLoop=1;jettySize=auto;html=1;exitX=0.5;exitY=1;exitDx=0;exitDy=0;entryX=0.5;entryY=0;entryDx=0;entryDy=0;" edge="1" parent="1" source="fxaJQLIq1E5l9hxzxbRq-23" target="fxaJQLIq1E5l9hxzxbRq-3">
          <mxGeometry relative="1" as="geometry">
            <mxPoint x="1240" y="920" as="targetPoint" />
          </mxGeometry>
        </mxCell>
        <mxCell id="fxaJQLIq1E5l9hxzxbRq-31" style="edgeStyle=orthogonalEdgeStyle;rounded=0;orthogonalLoop=1;jettySize=auto;html=1;exitX=0.5;exitY=0;exitDx=0;exitDy=0;entryX=0.5;entryY=1;entryDx=0;entryDy=0;" edge="1" parent="1" source="fxaJQLIq1E5l9hxzxbRq-23" target="fxaJQLIq1E5l9hxzxbRq-10">
          <mxGeometry relative="1" as="geometry" />
        </mxCell>
        <mxCell id="fxaJQLIq1E5l9hxzxbRq-23" value="isporucuje" style="rhombus;whiteSpace=wrap;html=1;" vertex="1" parent="1">
          <mxGeometry x="1240" y="880" width="120" height="80" as="geometry" />
        </mxCell>
        <mxCell id="fxaJQLIq1E5l9hxzxbRq-26" style="edgeStyle=orthogonalEdgeStyle;rounded=0;orthogonalLoop=1;jettySize=auto;html=1;exitX=0.5;exitY=0;exitDx=0;exitDy=0;entryX=0.5;entryY=1;entryDx=0;entryDy=0;" edge="1" parent="1" source="fxaJQLIq1E5l9hxzxbRq-24" target="fxaJQLIq1E5l9hxzxbRq-7">
          <mxGeometry relative="1" as="geometry" />
        </mxCell>
        <mxCell id="fxaJQLIq1E5l9hxzxbRq-27" style="edgeStyle=orthogonalEdgeStyle;rounded=0;orthogonalLoop=1;jettySize=auto;html=1;exitX=0.5;exitY=1;exitDx=0;exitDy=0;entryX=0.5;entryY=0;entryDx=0;entryDy=0;" edge="1" parent="1" source="fxaJQLIq1E5l9hxzxbRq-24" target="fxaJQLIq1E5l9hxzxbRq-2">
          <mxGeometry relative="1" as="geometry" />
        </mxCell>
        <mxCell id="fxaJQLIq1E5l9hxzxbRq-24" value="ugovoren" style="rhombus;whiteSpace=wrap;html=1;" vertex="1" parent="1">
          <mxGeometry x="1480" y="880" width="120" height="80" as="geometry" />
        </mxCell>
        <mxCell id="fxaJQLIq1E5l9hxzxbRq-34" style="edgeStyle=orthogonalEdgeStyle;rounded=0;orthogonalLoop=1;jettySize=auto;html=1;entryX=0.5;entryY=0;entryDx=0;entryDy=0;" edge="1" parent="1" source="fxaJQLIq1E5l9hxzxbRq-33" target="fxaJQLIq1E5l9hxzxbRq-8">
          <mxGeometry relative="1" as="geometry" />
        </mxCell>
        <mxCell id="fxaJQLIq1E5l9hxzxbRq-35" style="edgeStyle=orthogonalEdgeStyle;rounded=0;orthogonalLoop=1;jettySize=auto;html=1;entryX=0;entryY=0.5;entryDx=0;entryDy=0;" edge="1" parent="1" source="fxaJQLIq1E5l9hxzxbRq-33" target="fxaJQLIq1E5l9hxzxbRq-12">
          <mxGeometry relative="1" as="geometry" />
        </mxCell>
        <mxCell id="fxaJQLIq1E5l9hxzxbRq-33" value="sadrzi" style="rhombus;whiteSpace=wrap;html=1;" vertex="1" parent="1">
          <mxGeometry x="760" y="720" width="120" height="80" as="geometry" />
        </mxCell>
        <mxCell id="fxaJQLIq1E5l9hxzxbRq-38" style="edgeStyle=orthogonalEdgeStyle;rounded=0;orthogonalLoop=1;jettySize=auto;html=1;entryX=0.5;entryY=1;entryDx=0;entryDy=0;" edge="1" parent="1" source="fxaJQLIq1E5l9hxzxbRq-36" target="fxaJQLIq1E5l9hxzxbRq-37">
          <mxGeometry relative="1" as="geometry" />
        </mxCell>
        <mxCell id="fxaJQLIq1E5l9hxzxbRq-37" value="Zaposleni" style="rounded=0;whiteSpace=wrap;html=1;" vertex="1" parent="1">
          <mxGeometry x="480" y="40" width="120" height="80" as="geometry" />
        </mxCell>
        <mxCell id="fxaJQLIq1E5l9hxzxbRq-40" value="" style="group" vertex="1" connectable="0" parent="1">
          <mxGeometry x="500" y="200" width="80" height="80" as="geometry" />
        </mxCell>
        <mxCell id="fxaJQLIq1E5l9hxzxbRq-39" value="" style="rhombus;whiteSpace=wrap;html=1;" vertex="1" parent="fxaJQLIq1E5l9hxzxbRq-40">
          <mxGeometry width="80" height="80" as="geometry" />
        </mxCell>
        <mxCell id="fxaJQLIq1E5l9hxzxbRq-36" value="&lt;p style=&quot;line-height: 120%&quot;&gt;IS-A&lt;/p&gt;" style="rhombus;whiteSpace=wrap;html=1;" vertex="1" parent="fxaJQLIq1E5l9hxzxbRq-40">
          <mxGeometry x="4.444444444444444" y="3.428571428571429" width="71.1111111111111" height="73.14285714285714" as="geometry" />
        </mxCell>
        <mxCell id="fxaJQLIq1E5l9hxzxbRq-44" value="" style="group" vertex="1" connectable="0" parent="1">
          <mxGeometry x="380" y="360" width="120" height="80" as="geometry" />
        </mxCell>
        <mxCell id="fxaJQLIq1E5l9hxzxbRq-43" value="" style="rounded=0;whiteSpace=wrap;html=1;" vertex="1" parent="fxaJQLIq1E5l9hxzxbRq-44">
          <mxGeometry width="120" height="80" as="geometry" />
        </mxCell>
        <mxCell id="fxaJQLIq1E5l9hxzxbRq-42" value="Pekar" style="rounded=0;whiteSpace=wrap;html=1;" vertex="1" parent="fxaJQLIq1E5l9hxzxbRq-44">
          <mxGeometry x="4.615384615384616" y="4.444444444444445" width="110.76923076923077" height="71.11111111111111" as="geometry" />
        </mxCell>
        <mxCell id="fxaJQLIq1E5l9hxzxbRq-45" value="" style="group" vertex="1" connectable="0" parent="1">
          <mxGeometry x="580" y="360" width="120" height="80" as="geometry" />
        </mxCell>
        <mxCell id="fxaJQLIq1E5l9hxzxbRq-46" value="" style="rounded=0;whiteSpace=wrap;html=1;" vertex="1" parent="fxaJQLIq1E5l9hxzxbRq-45">
          <mxGeometry width="120" height="80" as="geometry" />
        </mxCell>
        <mxCell id="fxaJQLIq1E5l9hxzxbRq-47" value="Menadzer" style="rounded=0;whiteSpace=wrap;html=1;" vertex="1" parent="fxaJQLIq1E5l9hxzxbRq-45">
          <mxGeometry x="4.615384615384616" y="4.444444444444445" width="110.76923076923077" height="71.11111111111111" as="geometry" />
        </mxCell>
        <mxCell id="fxaJQLIq1E5l9hxzxbRq-49" style="edgeStyle=orthogonalEdgeStyle;rounded=0;orthogonalLoop=1;jettySize=auto;html=1;endArrow=block;strokeWidth=1;shape=flexArrow;width=3;endSize=3;startSize=3;endWidth=20;" edge="1" parent="1" source="fxaJQLIq1E5l9hxzxbRq-36">
          <mxGeometry relative="1" as="geometry">
            <mxPoint x="440" y="360" as="targetPoint" />
          </mxGeometry>
        </mxCell>
        <mxCell id="fxaJQLIq1E5l9hxzxbRq-50" style="edgeStyle=orthogonalEdgeStyle;shape=flexArrow;rounded=0;orthogonalLoop=1;jettySize=auto;html=1;exitX=1;exitY=0.5;exitDx=0;exitDy=0;entryX=0.5;entryY=0;entryDx=0;entryDy=0;startSize=3;endArrow=block;endSize=3;strokeWidth=1;fillColor=none;width=3;" edge="1" parent="1" source="fxaJQLIq1E5l9hxzxbRq-36" target="fxaJQLIq1E5l9hxzxbRq-46">
          <mxGeometry relative="1" as="geometry" />
        </mxCell>
      </root>
    </mxGraphModel>
  </diagram>
</mxfile>
